<?xml version="1.0" encoding="UTF-8"?>
<svg width="256" height="256" version="1.1" viewBox="0 0 256 256" xmlns="http://www.w3.org/2000/svg" xmlns:xlink="http://www.w3.org/1999/xlink">
 <path d="m105.5 207.89c-16.246-3.9877-33.399-14.699-43.471-27.148-2.7318-3.3762-4.8683-6.2182-4.7478-6.3155 0.12056-0.0973 2.6942 0.18374 5.7192 0.62446s8.0178 0.83417 11.095 0.87432c4.3741 0.0571 6.0107 0.5353 7.5 2.1916 17.455 19.413 52.508 24.998 77.479 12.344 4.6243-2.3433 4.6243-2.3433 10.525-0.22389 7.401 2.6582 7.1183 2.3476 4.2926 4.7152-14.801 12.402-46.299 18.36-68.392 12.938zm70-33.497c-4.387-1.5881-14.661-8.3765-15.221-10.057-0.62429-1.8729 8.9584-3.8368 18.721-3.8368 9.5653 0 25.76 5.7418 25.385 9-0.57454 4.9848-19.688 8.2233-28.885 4.8941zm-111.44-16.441c-17.932-2.4336-38.187-12.708-49.985-25.355-3.1998-3.4301-2.3749-3.2805 4.6026 0.83464 25.696 15.155 47.948 12.103 101.32-13.898 60.249-29.35 80.364-30.49 109.28-6.193 8.0127 6.7337 13.531 13.996 7.4626 9.821-29.372-20.209-50.009-17.868-98.165 11.132-34.82 20.969-52.638 26.626-74.512 23.658zm162.94-4.8601c-20.316-9.5387-45.828-12.487-68-7.8573-9.4207 1.967-9.4901 1.8502-1.9459-3.2729 29.249-19.863 63.148-18.826 82.835 2.5328 11.336 12.299 4.5847 16.802-12.89 8.5975zm-183.99-32.344c0.073151-44.375 49.767-82.96 96.387-74.842 18.969 3.3033 52.606 23.791 52.606 32.041 0 3.1094-19.938 2.0929-24.646-1.2565-38.622-27.477-94.221-5.8207-103.48 40.308-1.9639 9.7818-20.88 13.182-20.864 3.75z" fill="#0f84b2"/>
</svg>
